<?xml version="1.0" standalone="no"?>
<!DOCTYPE svg PUBLIC "-//W3C//DTD SVG 20010904//EN"
 "http://www.w3.org/TR/2001/REC-SVG-20010904/DTD/svg10.dtd">
<svg version="1.0" xmlns="http://www.w3.org/2000/svg"
 width="500.000000pt" height="500.000000pt" viewBox="0 0 500.000000 500.000000"
 preserveAspectRatio="xMidYMid meet">

<g transform="translate(0.000000,500.000000) scale(0.100000,-0.100000)"
fill="#000000" stroke="none">
<path d="M2455 3113 c1 -10 0 -22 -4 -28 -6 -10 -7 -22 -10 -70 -1 -20 -6 -25
-26 -25 -28 0 -45 -28 -57 -95 -2 -11 -11 -35 -20 -53 -9 -18 -12 -30 -7 -26
5 3 0 -11 -11 -30 -11 -20 -17 -36 -13 -36 3 0 -1 -8 -10 -18 -9 -10 -18 -28
-20 -40 -2 -11 -11 -29 -20 -40 -15 -17 -15 -20 0 -41 9 -13 25 -52 37 -87
l21 -63 29 70 c29 71 63 106 91 95 24 -9 18 -34 -31 -136 -25 -52 -51 -106
-58 -120 -9 -18 -20 -25 -41 -25 -35 0 -45 16 -77 126 l-23 76 -25 -30 c-14
-17 -18 -27 -10 -23 8 5 -1 -7 -19 -27 -19 -21 -30 -37 -25 -37 6 0 15 5 21
11 6 6 13 7 16 2 6 -10 -28 -75 -35 -67 -3 2 -11 -2 -17 -10 -16 -19 9 -16 35
4 11 8 16 10 12 6 -11 -13 12 -37 26 -29 6 4 17 8 24 9 11 2 11 0 0 -13 -7 -9
-12 -19 -10 -22 8 -17 66 -70 72 -66 4 2 7 -2 7 -10 0 -8 -5 -11 -11 -8 -6 4
-5 -1 3 -10 7 -9 10 -17 6 -17 -4 0 -1 -7 6 -16 15 -19 21 -47 8 -38 -5 3 -9
-2 -9 -11 0 -9 4 -14 9 -11 5 4 8 -2 6 -11 -2 -10 -4 -18 -5 -18 -1 0 -3 -8
-5 -18 -2 -9 0 -15 5 -12 5 3 7 -3 5 -12 -2 -10 -4 -18 -5 -18 -1 0 -3 -12 -4
-26 -2 -14 -6 -35 -11 -45 -7 -17 -11 -32 -19 -69 -1 -5 -5 -15 -9 -22 -5 -7
0 -16 12 -22 24 -13 34 -14 26 -2 -3 5 -1 12 5 16 6 4 8 10 5 15 -3 5 4 7 16
5 17 -3 19 -2 9 10 -10 12 -8 13 10 10 18 -3 20 -2 10 10 -10 12 -8 13 8 10
12 -2 26 3 32 11 7 7 17 11 23 7 6 -4 7 -1 3 6 -6 9 -12 8 -26 -4 -14 -12 -20
-13 -26 -4 -4 7 -3 10 3 6 6 -4 16 -1 22 7 6 7 28 12 51 11 29 -1 40 2 40 12
0 8 5 11 12 7 6 -4 8 -3 5 3 -8 13 27 46 37 36 4 -5 6 -1 4 7 -2 8 3 14 9 13
7 -2 12 3 10 10 -1 6 4 11 11 9 8 -1 11 2 8 6 -9 15 27 39 56 37 21 -1 25 1
18 10 -8 10 -3 12 20 10 17 -1 33 1 36 6 3 5 11 6 17 2 25 -16 33 -9 36 30 1
22 5 45 8 50 12 19 12 102 0 116 -18 21 -17 279 1 286 22 8 31 6 51 -14 18
-18 21 -18 33 -3 11 13 11 15 -2 7 -11 -6 -11 -4 2 11 9 10 17 22 17 27 1 4 1
8 2 10 0 1 2 10 4 20 2 10 11 35 21 55 10 20 19 43 20 51 2 8 13 34 25 58 l22
44 -40 42 c-22 23 -39 47 -37 52 5 13 -76 68 -146 98 -70 31 -145 47 -220 47
-50 0 -58 -3 -55 -17z m199 -515 c11 -16 16 -47 16 -106 0 -80 1 -82 20 -72
17 9 20 8 20 -13 0 -13 -12 -34 -26 -48 -24 -23 -26 -23 -54 -7 -25 14 -31 14
-47 2 -39 -29 -111 -2 -114 44 -4 63 16 93 81 123 35 16 50 28 50 42 0 17 -5
19 -32 14 -18 -3 -41 -8 -50 -12 -27 -11 -23 20 4 39 13 9 43 16 70 16 37 0
50 -5 62 -22z m-414 -295 c0 -8 4 -12 8 -9 5 3 9 -2 9 -10 0 -11 -5 -10 -22 6
-24 23 -32 58 -8 39 7 -6 13 -18 13 -26z"/>
<path d="M2562 2474 c-15 -11 -22 -25 -22 -50 0 -38 6 -41 38 -18 15 11 22 25
22 50 0 38 -6 41 -38 18z"/>
</g>
</svg>
